<?xml version="1.0" encoding="UTF-8" standalone="no"?>
<!-- Creator: CorelDRAW X7 -->

<svg
   xml:space="preserve"
   width="512"
   height="512"
   version="1.0"
   style="clip-rule:evenodd;fill-rule:evenodd;image-rendering:optimizeQuality;shape-rendering:geometricPrecision;text-rendering:geometricPrecision"
   viewBox="0 0 512000 512468.61"
   id="svg3"
   sodipodi:docname="maskable_reallab.svg"
   inkscape:version="1.4.2 (2aeb623e1d, 2025-05-12)"
   inkscape:export-filename="../615b0c3c/favicon-1024x1024.png"
   inkscape:export-xdpi="192"
   inkscape:export-ydpi="192"
   xmlns:inkscape="http://www.inkscape.org/namespaces/inkscape"
   xmlns:sodipodi="http://sodipodi.sourceforge.net/DTD/sodipodi-0.dtd"
   xmlns="http://www.w3.org/2000/svg"
   xmlns:svg="http://www.w3.org/2000/svg"><sodipodi:namedview
   id="namedview3"
   pagecolor="#ffffff"
   bordercolor="#000000"
   borderopacity="0.25"
   inkscape:showpageshadow="2"
   inkscape:pageopacity="0.0"
   inkscape:pagecheckerboard="0"
   inkscape:deskcolor="#d1d1d1"
   showguides="true"
   inkscape:zoom="1.3320953"
   inkscape:cx="534.49628"
   inkscape:cy="335.93692"
   inkscape:window-width="3440"
   inkscape:window-height="1371"
   inkscape:window-x="0"
   inkscape:window-y="0"
   inkscape:window-maximized="1"
   inkscape:current-layer="_1855477344512"><sodipodi:guide
     position="150890.1,259252.17"
     orientation="0,-1"
     id="guide3"
     inkscape:locked="false" /></sodipodi:namedview>
 <defs
   id="defs1">
  <style
   type="text/css"
   id="style1">
   <![CDATA[
    .fil1 {fill:#124874;fill-rule:nonzero}
    .fil0 {fill:#E42820;fill-rule:nonzero}
   ]]>
  </style>
 </defs>
 <g
   id="Слой_x0020_1"
   inkscape:label="Слой 1"
   inkscape:groupmode="layer">
  <metadata
   id="CorelCorpID_0Corel-Layer" />
  <g
   id="_1855477344512">
   <path
   class="fil0"
   d="m 64106,77497 c 9,-16 20,-32 29,-46 z"
   id="path1" />
   <path
   class="fil0"
   d="m 409451.96,131064.22 c -15311.9,966.21 -36255.8,4925.13 -48417.34,12748.89 -14427.05,9285.8 -28147.25,25040.12 -43067.58,50133.64 -9069.67,16158.61 -12820.09,22909.37 -16601.03,29710.98 -20854.9,37509.33 -33585.99,60416.15 -55048.59,91713.76 -15861.11,23298.39 -32546.05,41491.13 -51183.75,54079.84 -19209.8,12975.19 -40303.71,19967.51 -64418.3,20430.27 h -302.57 l -127837.3294,7.63 -241.5528,-22660.19 73259.1262,-213.58 c 44015.986,-1873.94 67067.746,-41163.13 78870.776,-61278.11 2051.93,-3496.16 3816.53,-6486.33 5354.84,-8807.78 11009.72,-18719.06 18520.74,-32665.55 25345.24,-45348.34 9451.07,-17559.61 17628.26,-32734.21 33280.88,-57036.96 l -91.54,88.99 c 15411.07,-24605.32 33728.39,-42922.64 51524.47,-56126.68 3191.04,-2364.67 8207.71,-5469.26 11358.06,-7513.56 v 0 l -228882.641,-111.88 c -7968.697,966.22 -14620.296,4909.88 -19336.93,11683.53 -5298.904,7612.72 -8469.602,18820.77 -8840.83,33519.89 V 324840.35 H 2011 V 175563.31 C 2501.7334,156343.34 7098.8631,141039.07 14838.721,129925.1 23577.844,117371.99 36049.592,110250 51066.543,108803.23 l 1039.948,-86.45 365133.629,195.78 h 45.77 l 43108.26,236.47 h 907.73 c 14182.96,1245.9 27191.21,8439.09 36525.32,20748.1 8139.05,10730.03 13394.73,24864.68 13928.69,42714.15 l 498.36,1795.12 -266.98,147509.9 v -305.12 c 1088.26,38383.99 -19629.34,68908.63 -48554.64,69729.91 h -38.14 c -742.45,17.8 -1502.71,17.8 -2257.88,0 h 256.81 l -187884.79,-528.87 v -22161.83 l 187884.79,528.87 h 261.89 c 406.83,7.63 821.28,7.63 1215.39,0 h -40.68 c 16209.46,-460.22 27730.25,-21025.25 26995.43,-46962.93 v -305.12 l -231.39,-148501.53 v 302.58 c -383.94,-12909.09 -3941.12,-23168.72 -9425.64,-30397.51 -5413.32,-7142.33 -12809.92,-11304.66 -20770.99,-12006.44 h 910.27 l -43067.58,-233.92 h -45.76 l -7747.49,-2.55 z"
   id="path2"
   style="stroke-width:2.54266" />
   
  </g>
 </g>
</svg>
