<?xml version="1.0" encoding="UTF-8" standalone="no"?>
<!-- Creator: CorelDRAW X7 -->

<svg
   xml:space="preserve"
   width="150"
   height="150"
   version="1.0"
   style="clip-rule:evenodd;fill-rule:evenodd;image-rendering:optimizeQuality;shape-rendering:geometricPrecision;text-rendering:geometricPrecision"
   viewBox="0 0 150000 150137.29"
   id="svg3"
   sodipodi:docname="mask-icon.svg"
   inkscape:version="1.4.2 (2aeb623e1d, 2025-05-12)"
   inkscape:export-filename="../6fea4568/tile-win-70x70.png"
   inkscape:export-xdpi="44.799999"
   inkscape:export-ydpi="44.799999"
   xmlns:inkscape="http://www.inkscape.org/namespaces/inkscape"
   xmlns:sodipodi="http://sodipodi.sourceforge.net/DTD/sodipodi-0.dtd"
   xmlns="http://www.w3.org/2000/svg"
   xmlns:svg="http://www.w3.org/2000/svg"><sodipodi:namedview
   id="namedview3"
   pagecolor="#5b5b5b"
   bordercolor="#000000"
   borderopacity="0.25"
   inkscape:showpageshadow="2"
   inkscape:pageopacity="0.0"
   inkscape:pagecheckerboard="0"
   inkscape:deskcolor="#d1d1d1"
   showguides="true"
   inkscape:zoom="1.3320953"
   inkscape:cx="534.49628"
   inkscape:cy="335.93692"
   inkscape:window-width="3440"
   inkscape:window-height="1371"
   inkscape:window-x="0"
   inkscape:window-y="0"
   inkscape:window-maximized="1"
   inkscape:current-layer="_1855477344512"
   showborder="false"
   inkscape:clip-to-page="false"
   inkscape:antialias-rendering="true"
   inkscape:lockguides="false"
   showgrid="true"><sodipodi:guide
     position="150890.1,-103079.15"
     orientation="0,-1"
     id="guide3"
     inkscape:locked="false" /><inkscape:grid
     id="grid3"
     units="px"
     originx="0"
     originy="0"
     spacingx="1000"
     spacingy="1000.9153"
     empcolor="#0099e5"
     empopacity="0.30196078"
     color="#0099e5"
     opacity="0.14902"
     empspacing="5"
     enabled="true"
     visible="true" /></sodipodi:namedview>
 <defs
   id="defs1">
  <style
   type="text/css"
   id="style1">
   <![CDATA[
    .fil1 {fill:#124874;fill-rule:nonzero}
    .fil0 {fill:#E42820;fill-rule:nonzero}
   ]]>
  </style>
 </defs>
 <g
   id="Слой_x0020_1"
   inkscape:label="Слой 1"
   inkscape:groupmode="layer">
  <metadata
   id="CorelCorpID_0Corel-Layer" />
  <g
   id="_1855477344512">
   <path
   class="fil0"
   d="m 64106,77497 c 9,-16 20,-32 29,-46 z"
   id="path1"
   style="fill:#ffffff" />
   
   
  <path
   class="fil0"
   d="m 113772.07,46882.606 c -3861.21,243.644 -9142.63,1241.968 -12209.4,3214.886 -3638.077,2341.605 -7097.907,6314.373 -10860.368,12642.211 -2287.096,4074.719 -3232.846,5777.061 -4186.286,7492.223 -5258.984,9458.734 -8469.385,15235.157 -13881.615,23127.475 -3999.692,5875.166 -8207.141,10462.829 -12907.019,13637.329 -4844.13,3271.95 -10163.382,5035.21 -16244.365,5151.9 h -76.301 l -32236.765,1.93 -60.913,-5714.23 18473.768,-53.85 c 11099.516,-472.56 16912.488,-10380.125 19888.861,-15452.522 517.432,-881.624 962.411,-1635.658 1350.332,-2221.057 2776.321,-4720.395 4670.381,-8237.276 6391.312,-11435.501 2383.277,-4428.011 4445.325,-8254.582 8392.436,-14383.022 l -23.075,22.437 c 3886.212,-6204.725 8505.294,-10823.799 12992.937,-14153.472 804.686,-596.3 2069.737,-1379.177 2864.16,-1894.689 v 0 l -57717.376,-28.223 c -2009.47,243.661 -3686.804,1238.128 -4876.197,2946.238 -1336.228,1919.709 -2135.782,4746.037 -2229.395,8452.722 v 37511.781 h -5589.192 v -37643.22 c 123.748,-4846.704 1283.007,-8705.984 3234.769,-11508.6 2203.746,-3165.516 5348.749,-4961.474 9135.575,-5326.304 l 262.242,-21.8 92075.815,49.37 h 11.55 l 10870.61,59.624 h 228.9 c 3576.53,314.185 6856.82,2128.094 9210.6,5232.051 2052.42,2705.796 3377.76,6270.134 3512.41,10771.243 l 125.66,452.676 -67.32,37197.596 v -76.947 c 274.42,9679.309 -4949.94,17376.709 -12244.04,17583.809 h -9.6 c -187.24,4.49 -378.95,4.49 -569.39,0 h 64.77 l -47378.951,-133.36 v -5588.55 l 47378.951,133.37 h 66.04 c 102.59,1.92 207.1,1.92 306.48,0 h -10.25 c 4087.54,-116.06 6992.74,-5301.95 6807.44,-11842.658 v -76.947 l -58.35,-37447.654 v 76.301 c -96.81,-3255.292 -993.83,-5842.47 -2376.87,-7665.351 -1365.08,-1801.081 -3230.28,-2850.694 -5237.82,-3027.671 h 229.54 l -10860.36,-58.987 h -11.54 l -1953.68,-0.637 z"
   id="path2"
   style="clip-rule:evenodd;fill:#000000;fill-rule:evenodd;stroke-width:0.641182;image-rendering:optimizeQuality;shape-rendering:geometricPrecision;text-rendering:geometricPrecision" /></g>
 </g>
</svg>
